# xmcd
#
# Track frame offsets: 
#        187
#        21770
#        39830
#
# Disc length: 875 seconds
#
# Revision: 0
# Processed by: cddbd v1.5PL3 Copyright (c) Steve Scherf et al.
# Submitted via: ExactAudioCopy v0.95a4
#
DISCID=16036903
DTITLE=SUGIZO - LUCIFER
DYEAR=1997
DGENRE=Rock
TTITLE0=LUCIFER
TTITLE1=Le Fou
TTITLE2=BEAUTY
EXTD=
EXTT0=
EXTT1=
EXTT2=
PLAYORDER=
